# xmcd
#
# Track frame offsets:
#	150
#	11427
#	25593
#	32336
#	37964
#	50971
#	64126
#	77358
#	88296
#	101914
#	114039
#	124622
#	138594
#	149475
#	164172
#	174914
#	185434
#	195901
#	209981
#	221961
#	232883
#	247455
#	259145
#	272277
#	283606
#	292428
#
# Disc length: 4059 seconds
#
# Revision: 0
# Processed by: cddbd v1.5.1PL0 Copyright (c) Steve Scherf et al.
# Submitted via: EasyCDDAExtractor 8.0.1.1
#
DISCID=8c0fd91a
DTITLE=Otis Redding - Otis! The Definitive Otis Redding, Vol. 3
DYEAR=1993
DGENRE=Blues
TTITLE0=Merry Christmas, Baby
TTITLE1=White Christmas
TTITLE2=Radio Spot - Things Go Better With Coke
TTITLE3=Radio Spot - Stay In School
TTITLE4=Glory Of Love
TTITLE5=I Love You More Than Words Can Say
TTITLE6=Let Me Come On Home
TTITLE7=Open The Door
TTITLE8=Hucklebuck
TTITLE9=Happy Song (Dum Dum)
TTITLE10=Hard To Handle
TTITLE11=Amen
TTITLE12=Gone Again
TTITLE13=I've Got Dreams To Remember
TTITLE14=I'm A Changed Man
TTITLE15=Direct Me
TTITLE16=Love Man
TTITLE17=Free Me
TTITLE18=Look At The Girl
TTITLE19=Pounds And Hundreds (Lbs and 100s)
TTITLE20=Tell The Truth
TTITLE21=Johnny's Heartbreak
TTITLE22=Match Game
TTITLE23=Little Time
TTITLE24=Slippn' And Slidin'
TTITLE25=Sittin' On) The Dock Of The Bay
EXTD=
EXTT0=
EXTT1=
EXTT2=
EXTT3=
EXTT4=
EXTT5=
EXTT6=
EXTT7=
EXTT8=
EXTT9=
EXTT10=
EXTT11=
EXTT12=
EXTT13=
EXTT14=
EXTT15=
EXTT16=
EXTT17=
EXTT18=
EXTT19=
EXTT20=
EXTT21=
EXTT22=
EXTT23=
EXTT24=
EXTT25=
PLAYORDER=
